<svg class="ptc-decal" xmlns="http://www.w3.org/2000/svg" viewBox="0 0 583.93 449.78"><path d="M416.51,57.76a258.59,258.59,0,0,0-72.36-10.47,263.61,263.61,0,0,0-75.63,11.33C156.22,92.15,82.32,188.54,82.32,188.54L27.45,264.36a240.72,240.72,0,0,0,24.35,7.92q4.66,1.31,10.15,2.66c-2.11,2-46.31,43.21-60,107.45-2.5,11.7-2.52,16.55-.28,16.55,10,0,65.71-97.74,147.73-112l3.89.08c2.65.07,5.34.09,8.06.09s5.61,0,8.46-.05a426,426,0,0,0,86.08-10,54.64,54.64,0,0,0,8.88-2.27l.24-.11a5.22,5.22,0,0,1-.18.56C227.74,384,101.89,449.78,127.6,449.78a38.87,38.87,0,0,0,6.31-.71c47.39-8.45,185.72-59,251.3-221.83,0-.06,63-32,99-85,32.93-48.47,75-71,98.28-81.59,2.79-1.27,4.59-31.07-25.28-48.41C542.27,3.56,528.14,0,514.87,0,473.08,0,439.81,35.36,416.51,57.76Z" style="fill:#f6f7fd"/><path d="M557.21,12.24C542.27,3.56,528.14,0,514.87,0c-41.79,0-75.06,35.36-98.36,57.76a258.59,258.59,0,0,0-72.36-10.47,263.61,263.61,0,0,0-75.63,11.33C156.22,92.15,82.32,188.54,82.32,188.54L27.45,264.36a240.72,240.72,0,0,0,24.35,7.92q4.66,1.31,10.15,2.66c-2.11,2-46.31,43.21-60,107.45-2.5,11.7-2.52,16.55-.28,16.55,10,0,65.71-97.74,147.73-112l3.89.08c2.65.07,5.34.09,8.06.09s5.61,0,8.46-.05a426,426,0,0,0,86.08-10,54.64,54.64,0,0,0,8.88-2.27l.24-.11a5.22,5.22,0,0,1-.18.56C227.74,384,101.89,449.78,127.6,449.78a38.87,38.87,0,0,0,6.31-.71c47.39-8.45,185.72-59,251.3-221.83,0-.06,63-32,99-85,32.93-48.47,75-71,98.28-81.59C585.28,59.38,587.08,29.58,557.21,12.24Z" style="fill:none"/><g style="opacity:0.29"><path d="M400.43,242.73c1.52,11.05,2.44,22.39,1.53,30.44-7.75,68.07-70.8,133.09-43.75,122.07s101-57,107-162c.52-9-.52-22.4-2.23-36.81a352.63,352.63,0,0,1-62,44.95Z" style="fill:#f6f7fd"/><path d="M170,307h0c-2.66,0-5.67.05-8.63.05-3.2,0-6,0-8.55-.09l-1.66,0c-34.53,32.82-76.67,48.45-43,44.86,50.29-5.36,89.68-31.17,110.76-48.15A443.3,443.3,0,0,1,170,307Z" style="fill:#f6f7fd"/></g></svg>