<svg xmlns="http://www.w3.org/2000/svg" viewBox="0 0 84 47"><g fill="none"><path d="M76.17 0a7.87 7.87 0 0 0-6.88 4.05l-.16.33L63 16.54l-7.8 15.37 5.11 10.07.28.55A8 8 0 0 0 64 45.76a8.05 8.05 0 0 0 3.41-3.23l.28-.55L83 11.77l.37-.73a7.86 7.86 0 0 0-7.19-11L76.17 0zM28.85 14.63l-5.1-10-.28-.55a7.89 7.89 0 0 0-3.4-3.22 7.92 7.92 0 0 0-3.4 3.21l-.29.56L1.05 34.81l-.37.72a7.86 7.86 0 0 0 14.06 7l.17-.32 6.17-12.16 7.79-15.36-.02-.06z" fill="currentcolor"/><path d="M76.174 0a7.86 7.86 0 0 0-6.87 4.05l-.17.33-6.17 12.16-7.81 15.37 5.12 10.07.28.55a7.94 7.94 0 0 0 3.41 3.23 7.94 7.94 0 0 0 3.41-3.23l.29-.55 15.36-30.21.36-.73a7.86 7.86 0 0 0-7.19-11l-.02-.04z" fill="currentcolor" transform="translate(-.024)"/><path d="M7.884 46.58a7.86 7.86 0 0 0 6.87-4l.17-.33 6.18-12.16 7.8-15.37-5.11-10.12-.28-.55a8 8 0 0 0-3.42-3.23 8 8 0 0 0-3.41 3.23l-.28.55-15.38 30.21-.37.73a7.86 7.86 0 0 0 7.19 11l.04.04z" fill="currentcolor" transform="translate(-.024)"/><path d="M28.85 14.63l-5.1-10-.28-.55A7.94 7.94 0 0 0 20.06.85a8.31 8.31 0 0 1 1.49-.56 8.16 8.16 0 0 1 2-.25h10.68a7.92 7.92 0 0 1 6.86 4l.28.55 13.81 27.36 5.09 10 .28.55A8 8 0 0 0 64 45.76a8.05 8.05 0 0 1-3.47.81H49.79a7.91 7.91 0 0 1-6.85-4l-.29-.55-13.8-27.39z" fill="currentcolor"/></g></svg>
