<svg viewBox="0 0 73 73" xmlns="http://www.w3.org/2000/svg"><g><path d="M30.24 37.44A3.65 3.65 0 0127 35.4l-1.06-2.39h-10.6l-1.08 2.4a3.65 3.65 0 01-3.23 2.02h-.57L15 71.95c.23.65.65.65.9 0l4.5-11.03 3.91 11c.23.65.65.65.9 0l5.24-34.45-.2-.03z" fill="rgba(255,255,255,0.3)"></path><path d="M25.51 32.06h-9.73l-1.49 3.35a3.66 3.66 0 01-2.56 1.94l3.43 21.3c.23.39.65.39.9 0l4.39-6.67 4.02 6.64c.26.39.65.39.9 0l3.88-21.33A3.65 3.65 0 0127 35.41l-1.49-3.35z" fill="rgba(255,255,255,0.3)"></path><path d="M27 35.41l-6.38-14.26-6.36 14.26c-.22.42-.5.79-.84 1.1l2.64 14.15c.14.2.5.25.76 0l3.55-4.7 3.54 4.67c.22.28.62.22.76 0l2.92-14.32a4.98 4.98 0 01-.59-.9z" fill="rgba(255,255,255,0.8)"></path><path d="M.25 1.74C.05 1.07.45.6 1.13.6h5.6c.39 0 .75.34.87.67l4.1 16.18h.2L19.3.64a.92.92 0 01.81-.53h.87c.43 0 .7.22.82.53l7.4 16.8h.2l4.1-16.18a.97.97 0 01.87-.67h5.6c.68 0 1.04.48.87 1.15l-9.03 32.07a.9.9 0 01-.87.67h-.76a.93.93 0 01-.81-.53l-8.75-19.52h-.14l-8.7 19.52a.99.99 0 01-.8.53h-.77a.93.93 0 01-.87-.67L.25 1.74zM45.82 1.49c0-.48.4-.9.9-.9h11.5c5.88 0 10.7 4.78 10.7 10.55 0 5.9-4.82 10.74-10.64 10.74h-5V33.1c0 .48-.43.9-.9.9h-5.63a.89.89 0 01-.9-.9V1.5h-.03zM57.8 14.9a3.75 3.75 0 003.77-3.77c0-2-1.71-3.55-3.77-3.55h-4.53v7.32h4.53z" fill="white"></path></g></svg>
